<svg id="visual" viewBox="0 0 900 600" width="900" height="600" xmlns="http://www.w3.org/2000/svg" xmlns:xlink="http://www.w3.org/1999/xlink" version="1.1"><rect width="900" height="600" fill="#070544"></rect><g><g transform="translate(533 308)"><path d="M85.6 -29.6C96.5 5.5 80.8 47.5 49.6 70.8C18.3 94.1 -28.4 98.7 -60 77.1C-91.6 55.4 -108.2 7.4 -95.6 -30C-83.1 -67.5 -41.6 -94.6 -2.1 -93.9C37.4 -93.2 74.8 -64.8 85.6 -29.6Z" stroke="#e361d5" fill="none" stroke-width="20"></path></g><g transform="translate(358 48)"><path d="M46.5 -15.9C52.1 2 42.7 24 26.6 35.5C10.4 47 -12.7 48.1 -29.4 36.8C-46.1 25.5 -56.5 1.9 -50.6 -16.6C-44.7 -35.1 -22.3 -48.3 -0.9 -48C20.5 -47.7 40.9 -33.8 46.5 -15.9Z" stroke="#e361d5" fill="none" stroke-width="20"></path></g><g transform="translate(849 514)"><path d="M80.5 -25.3C91.2 6.7 77.6 47.4 50.3 66.6C23 85.9 -18.1 83.6 -44.9 63.7C-71.6 43.8 -84.1 6.2 -74.3 -24.6C-64.4 -55.4 -32.2 -79.4 1.4 -79.9C34.9 -80.3 69.8 -57.2 80.5 -25.3Z" stroke="#e361d5" fill="none" stroke-width="20"></path></g><g transform="translate(102 271)"><path d="M77.6 -26.5C87 3.6 71.6 40.5 42.1 63.2C12.6 85.8 -31 94.2 -58 75.6C-85.1 56.9 -95.7 11.2 -83.2 -23.1C-70.8 -57.4 -35.4 -80.3 -0.6 -80.1C34.1 -79.9 68.2 -56.6 77.6 -26.5Z" stroke="#e361d5" fill="none" stroke-width="20"></path></g><g transform="translate(812 107)"><path d="M65.9 -20.4C75.5 8.1 66.6 43.7 44.4 59.4C22.3 75 -13 70.8 -36.6 53C-60.2 35.3 -72 4 -64 -22.4C-55.9 -48.8 -28 -70.3 0.1 -70.3C28.2 -70.3 56.3 -48.9 65.9 -20.4Z" stroke="#e361d5" fill="none" stroke-width="20"></path></g><g transform="translate(215 582)"><path d="M60.6 -20C68.4 4.2 57.5 34.2 35.2 51.1C12.8 67.9 -21 71.7 -42.9 56.4C-64.8 41.1 -74.8 6.8 -65.7 -19.3C-56.5 -45.3 -28.3 -63.1 -0.9 -62.8C26.4 -62.5 52.9 -44.1 60.6 -20Z" stroke="#e361d5" fill="none" stroke-width="20"></path></g></g></svg>