<svg id="visual" viewBox="0 0 960 540" width="960" height="540" xmlns="http://www.w3.org/2000/svg" xmlns:xlink="http://www.w3.org/1999/xlink" version="1.1"><rect x="0" y="0" width="960" height="540" fill="#070544"></rect><g transform="translate(497.26415463285196 241.3691017554077)"><path d="M93.1 -107C126.3 -83.2 162.6 -59.1 175.8 -25C188.9 9.1 178.9 53.3 161.1 101.4C143.4 149.6 117.9 201.6 78.7 215.6C39.6 229.6 -13.2 205.5 -48.1 174.4C-83 143.4 -100 105.5 -133.1 67.4C-166.3 29.4 -215.6 -8.6 -216.3 -44C-217.1 -79.4 -169.3 -112.1 -125.1 -134C-81 -155.9 -40.5 -166.9 -5.2 -160.7C30 -154.4 60 -130.8 93.1 -107" fill="#e361d5"></path></g></svg>