<svg id="visual" viewBox="0 0 900 450" width="900" height="450" xmlns="http://www.w3.org/2000/svg" xmlns:xlink="http://www.w3.org/1999/xlink" version="1.1"><rect x="0" y="0" width="900" height="450" fill="#e361d5"></rect><defs><linearGradient id="grad1_0" x1="50%" y1="0%" x2="100%" y2="100%"><stop offset="10%" stop-color="#070544" stop-opacity="1"></stop><stop offset="90%" stop-color="#070544" stop-opacity="1"></stop></linearGradient></defs><defs><linearGradient id="grad1_1" x1="50%" y1="0%" x2="100%" y2="100%"><stop offset="10%" stop-color="#070544" stop-opacity="1"></stop><stop offset="90%" stop-color="#70328f" stop-opacity="1"></stop></linearGradient></defs><defs><linearGradient id="grad1_2" x1="50%" y1="0%" x2="100%" y2="100%"><stop offset="10%" stop-color="#e361d5" stop-opacity="1"></stop><stop offset="90%" stop-color="#70328f" stop-opacity="1"></stop></linearGradient></defs><defs><linearGradient id="grad2_0" x1="0%" y1="0%" x2="50%" y2="100%"><stop offset="10%" stop-color="#070544" stop-opacity="1"></stop><stop offset="90%" stop-color="#070544" stop-opacity="1"></stop></linearGradient></defs><defs><linearGradient id="grad2_1" x1="0%" y1="0%" x2="50%" y2="100%"><stop offset="10%" stop-color="#70328f" stop-opacity="1"></stop><stop offset="90%" stop-color="#070544" stop-opacity="1"></stop></linearGradient></defs><defs><linearGradient id="grad2_2" x1="0%" y1="0%" x2="50%" y2="100%"><stop offset="10%" stop-color="#70328f" stop-opacity="1"></stop><stop offset="90%" stop-color="#e361d5" stop-opacity="1"></stop></linearGradient></defs><g transform="translate(900, 0)"><path d="M0 360C-51.6 360.4 -103.2 360.8 -137.8 332.6C-172.3 304.4 -189.9 247.7 -207.2 207.2C-224.5 166.7 -241.6 142.4 -267 110.6C-292.4 78.8 -326.2 39.4 -360 0L0 0Z" fill="#a749b3"></path><path d="M0 240C-34.4 240.3 -68.8 240.5 -91.8 221.7C-114.9 202.9 -126.6 165.1 -138.1 138.1C-149.7 111.1 -161 94.9 -178 73.7C-195 52.5 -217.5 26.3 -240 0L0 0Z" fill="#3c1b6a"></path><path d="M0 120C-17.2 120.1 -34.4 120.3 -45.9 110.9C-57.4 101.5 -63.3 82.6 -69.1 69.1C-74.8 55.6 -80.5 47.5 -89 36.9C-97.5 26.3 -108.7 13.1 -120 0L0 0Z" fill="#070544"></path></g><g transform="translate(0, 450)"><path d="M0 -360C50 -354.2 99.9 -348.4 133.6 -322.4C167.2 -296.5 184.4 -250.4 219.2 -219.2C254 -188 306.2 -171.8 332.6 -137.8C359 -103.7 359.5 -51.9 360 0L0 0Z" fill="#a749b3"></path><path d="M0 -240C33.3 -236.1 66.6 -232.3 89 -215C111.5 -197.7 123 -166.9 146.1 -146.1C169.3 -125.4 204.1 -114.5 221.7 -91.8C239.3 -69.1 239.7 -34.6 240 0L0 0Z" fill="#3c1b6a"></path><path d="M0 -120C16.7 -118.1 33.3 -116.1 44.5 -107.5C55.7 -98.8 61.5 -83.5 73.1 -73.1C84.7 -62.7 102.1 -57.3 110.9 -45.9C119.7 -34.6 119.8 -17.3 120 0L0 0Z" fill="#070544"></path></g></svg>