<svg id="visual" viewBox="0 0 900 450" width="900" height="450" xmlns="http://www.w3.org/2000/svg" xmlns:xlink="http://www.w3.org/1999/xlink" version="1.1"><rect x="0" y="0" width="900" height="450" fill="#070544"></rect><path d="M0 247L129 247L129 246L257 246L257 219L386 219L386 228L514 228L514 197L643 197L643 199L771 199L771 206L900 206L900 284L900 451L900 451L771 451L771 451L643 451L643 451L514 451L514 451L386 451L386 451L257 451L257 451L129 451L129 451L0 451Z" fill="#e361d5"></path><path d="M0 321L129 321L129 306L257 306L257 310L386 310L386 276L514 276L514 309L643 309L643 336L771 336L771 315L900 315L900 338L900 451L900 451L771 451L771 451L643 451L643 451L514 451L514 451L386 451L386 451L257 451L257 451L129 451L129 451L0 451Z" fill="#9e32b2"></path><path d="M0 390L129 390L129 338L257 338L257 359L386 359L386 381L514 381L514 355L643 355L643 373L771 373L771 341L900 341L900 353L900 451L900 451L771 451L771 451L643 451L643 451L514 451L514 451L386 451L386 451L257 451L257 451L129 451L129 451L0 451Z" fill="#560090"></path></svg>