<svg id="visual" viewBox="0 0 900 450" width="900" height="450" xmlns="http://www.w3.org/2000/svg" xmlns:xlink="http://www.w3.org/1999/xlink" version="1.1"><rect x="0" y="0" width="900" height="450" fill="#070544"></rect><path d="M0 164L21.5 169.8C43 175.7 86 187.3 128.8 203.5C171.7 219.7 214.3 240.3 257.2 228C300 215.7 343 170.3 385.8 163.8C428.7 157.3 471.3 189.7 514.2 188.8C557 188 600 154 642.8 137.8C685.7 121.7 728.3 123.3 771.2 135.3C814 147.3 857 169.7 878.5 180.8L900 192L900 451L878.5 451C857 451 814 451 771.2 451C728.3 451 685.7 451 642.8 451C600 451 557 451 514.2 451C471.3 451 428.7 451 385.8 451C343 451 300 451 257.2 451C214.3 451 171.7 451 128.8 451C86 451 43 451 21.5 451L0 451Z" fill="#e361d5"></path><path d="M0 248L21.5 243.8C43 239.7 86 231.3 128.8 221C171.7 210.7 214.3 198.3 257.2 187.2C300 176 343 166 385.8 171.5C428.7 177 471.3 198 514.2 218.8C557 239.7 600 260.3 642.8 261.2C685.7 262 728.3 243 771.2 228.2C814 213.3 857 202.7 878.5 197.3L900 192L900 451L878.5 451C857 451 814 451 771.2 451C728.3 451 685.7 451 642.8 451C600 451 557 451 514.2 451C471.3 451 428.7 451 385.8 451C343 451 300 451 257.2 451C214.3 451 171.7 451 128.8 451C86 451 43 451 21.5 451L0 451Z" fill="#e257c4"></path><path d="M0 294L21.5 291.7C43 289.3 86 284.7 128.8 287.2C171.7 289.7 214.3 299.3 257.2 293.2C300 287 343 265 385.8 264.8C428.7 264.7 471.3 286.3 514.2 280.5C557 274.7 600 241.3 642.8 229C685.7 216.7 728.3 225.3 771.2 222.2C814 219 857 204 878.5 196.5L900 189L900 451L878.5 451C857 451 814 451 771.2 451C728.3 451 685.7 451 642.8 451C600 451 557 451 514.2 451C471.3 451 428.7 451 385.8 451C343 451 300 451 257.2 451C214.3 451 171.7 451 128.8 451C86 451 43 451 21.5 451L0 451Z" fill="#e04db4"></path><path d="M0 306L21.5 295.8C43 285.7 86 265.3 128.8 267.5C171.7 269.7 214.3 294.3 257.2 301.3C300 308.3 343 297.7 385.8 288.2C428.7 278.7 471.3 270.3 514.2 267.8C557 265.3 600 268.7 642.8 264.7C685.7 260.7 728.3 249.3 771.2 249.8C814 250.3 857 262.7 878.5 268.8L900 275L900 451L878.5 451C857 451 814 451 771.2 451C728.3 451 685.7 451 642.8 451C600 451 557 451 514.2 451C471.3 451 428.7 451 385.8 451C343 451 300 451 257.2 451C214.3 451 171.7 451 128.8 451C86 451 43 451 21.5 451L0 451Z" fill="#dd44a4"></path><path d="M0 292L21.5 303.3C43 314.7 86 337.3 128.8 344C171.7 350.7 214.3 341.3 257.2 329.5C300 317.7 343 303.3 385.8 294.5C428.7 285.7 471.3 282.3 514.2 287.3C557 292.3 600 305.7 642.8 306.7C685.7 307.7 728.3 296.3 771.2 299.5C814 302.7 857 320.3 878.5 329.2L900 338L900 451L878.5 451C857 451 814 451 771.2 451C728.3 451 685.7 451 642.8 451C600 451 557 451 514.2 451C471.3 451 428.7 451 385.8 451C343 451 300 451 257.2 451C214.3 451 171.7 451 128.8 451C86 451 43 451 21.5 451L0 451Z" fill="#d93b94"></path><path d="M0 312L21.5 321.2C43 330.3 86 348.7 128.8 358.8C171.7 369 214.3 371 257.2 367C300 363 343 353 385.8 342.5C428.7 332 471.3 321 514.2 317.8C557 314.7 600 319.3 642.8 319.8C685.7 320.3 728.3 316.7 771.2 320.2C814 323.7 857 334.3 878.5 339.7L900 345L900 451L878.5 451C857 451 814 451 771.2 451C728.3 451 685.7 451 642.8 451C600 451 557 451 514.2 451C471.3 451 428.7 451 385.8 451C343 451 300 451 257.2 451C214.3 451 171.7 451 128.8 451C86 451 43 451 21.5 451L0 451Z" fill="#d33285"></path><path d="M0 355L21.5 352.7C43 350.3 86 345.7 128.8 347.3C171.7 349 214.3 357 257.2 363.8C300 370.7 343 376.3 385.8 383.3C428.7 390.3 471.3 398.7 514.2 394.7C557 390.7 600 374.3 642.8 369.5C685.7 364.7 728.3 371.3 771.2 371.5C814 371.7 857 365.3 878.5 362.2L900 359L900 451L878.5 451C857 451 814 451 771.2 451C728.3 451 685.7 451 642.8 451C600 451 557 451 514.2 451C471.3 451 428.7 451 385.8 451C343 451 300 451 257.2 451C214.3 451 171.7 451 128.8 451C86 451 43 451 21.5 451L0 451Z" fill="#cd2a76"></path><path d="M0 435L21.5 435.2C43 435.3 86 435.7 128.8 435.7C171.7 435.7 214.3 435.3 257.2 435.3C300 435.3 343 435.7 385.8 431.3C428.7 427 471.3 418 514.2 414.2C557 410.3 600 411.7 642.8 407.3C685.7 403 728.3 393 771.2 395.8C814 398.7 857 414.3 878.5 422.2L900 430L900 451L878.5 451C857 451 814 451 771.2 451C728.3 451 685.7 451 642.8 451C600 451 557 451 514.2 451C471.3 451 428.7 451 385.8 451C343 451 300 451 257.2 451C214.3 451 171.7 451 128.8 451C86 451 43 451 21.5 451L0 451Z" fill="#c62368"></path></svg>