<svg id="visual" viewBox="0 0 960 540" width="960" height="540" xmlns="http://www.w3.org/2000/svg" xmlns:xlink="http://www.w3.org/1999/xlink" version="1.1"><g stroke-width="1" stroke-linejoin="bevel"><path d="M549.6 263L388.4 269L534.6 387Z" fill="#70328f" stroke="#70328f"></path><path d="M388.4 269L404.4 410L534.6 387Z" fill="#321762" stroke="#321762"></path><path d="M384.4 109L286.3 261L388.4 269Z" fill="#321762" stroke="#321762"></path><path d="M388.4 269L295.3 403L404.4 410Z" fill="#b34eba" stroke="#b34eba"></path><path d="M286.3 261L295.3 403L388.4 269Z" fill="#e361d5" stroke="#e361d5"></path><path d="M549.6 263L384.4 109L388.4 269Z" fill="#863b9e" stroke="#863b9e"></path><path d="M534.6 387L683.7 269L549.6 263Z" fill="#863b9e" stroke="#863b9e"></path><path d="M549.6 263L658.7 132L557.6 118Z" fill="#863b9e" stroke="#863b9e"></path><path d="M557.6 118L384.4 109L549.6 263Z" fill="#462071" stroke="#462071"></path><path d="M404.4 410L528.6 540L534.6 387Z" fill="#70328f" stroke="#70328f"></path><path d="M534.6 387L702.7 386L683.7 269Z" fill="#70328f" stroke="#70328f"></path><path d="M395.4 540L528.6 540L404.4 410Z" fill="#70328f" stroke="#70328f"></path><path d="M295.3 403L395.4 540L404.4 410Z" fill="#70328f" stroke="#70328f"></path><path d="M684.7 540L702.7 386L534.6 387Z" fill="#863b9e" stroke="#863b9e"></path><path d="M683.7 269L658.7 132L549.6 263Z" fill="#9c44ac" stroke="#9c44ac"></path><path d="M384.4 109L270.3 124L286.3 261Z" fill="#5b2980" stroke="#5b2980"></path><path d="M127.1 421L269.3 540L295.3 403Z" fill="#b34eba" stroke="#b34eba"></path><path d="M152.1 284L295.3 403L286.3 261Z" fill="#070544" stroke="#070544"></path><path d="M295.3 403L269.3 540L395.4 540Z" fill="#e361d5" stroke="#e361d5"></path><path d="M528.6 540L684.7 540L534.6 387Z" fill="#70328f" stroke="#70328f"></path><path d="M270.3 124L152.1 284L286.3 261Z" fill="#cb57c8" stroke="#cb57c8"></path><path d="M666.7 0L531.6 0L557.6 118Z" fill="#70328f" stroke="#70328f"></path><path d="M557.6 118L531.6 0L384.4 109Z" fill="#070544" stroke="#070544"></path><path d="M384.4 109L285.3 0L270.3 124Z" fill="#9c44ac" stroke="#9c44ac"></path><path d="M531.6 0L386.4 0L384.4 109Z" fill="#cb57c8" stroke="#cb57c8"></path><path d="M702.7 386L799.9 261L683.7 269Z" fill="#e361d5" stroke="#e361d5"></path><path d="M683.7 269L799.9 261L658.7 132Z" fill="#462071" stroke="#462071"></path><path d="M658.7 132L666.7 0L557.6 118Z" fill="#b34eba" stroke="#b34eba"></path><path d="M839.9 414L799.9 261L702.7 386Z" fill="#321762" stroke="#321762"></path><path d="M152.1 284L127.1 421L295.3 403Z" fill="#321762" stroke="#321762"></path><path d="M386.4 0L285.3 0L384.4 109Z" fill="#863b9e" stroke="#863b9e"></path><path d="M270.3 124L122.1 120L152.1 284Z" fill="#e361d5" stroke="#e361d5"></path><path d="M833.9 0L666.7 0L658.7 132Z" fill="#b34eba" stroke="#b34eba"></path><path d="M684.7 540L839.9 414L702.7 386Z" fill="#070544" stroke="#070544"></path><path d="M137.1 0L122.1 120L270.3 124Z" fill="#e361d5" stroke="#e361d5"></path><path d="M152.1 284L0 409L127.1 421Z" fill="#5b2980" stroke="#5b2980"></path><path d="M799.9 261L836.9 152L658.7 132Z" fill="#5b2980" stroke="#5b2980"></path><path d="M960 251L836.9 152L799.9 261Z" fill="#321762" stroke="#321762"></path><path d="M0 409L113.1 540L127.1 421Z" fill="#e361d5" stroke="#e361d5"></path><path d="M127.1 421L113.1 540L269.3 540Z" fill="#b34eba" stroke="#b34eba"></path><path d="M684.7 540L844.9 540L839.9 414Z" fill="#b34eba" stroke="#b34eba"></path><path d="M839.9 414L960 251L799.9 261Z" fill="#863b9e" stroke="#863b9e"></path><path d="M285.3 0L137.1 0L270.3 124Z" fill="#b34eba" stroke="#b34eba"></path><path d="M0 129L0 259L122.1 120Z" fill="#b34eba" stroke="#b34eba"></path><path d="M122.1 120L0 259L152.1 284Z" fill="#cb57c8" stroke="#cb57c8"></path><path d="M0 259L0 409L152.1 284Z" fill="#cb57c8" stroke="#cb57c8"></path><path d="M960 149L833.9 0L836.9 152Z" fill="#e361d5" stroke="#e361d5"></path><path d="M836.9 152L833.9 0L658.7 132Z" fill="#9c44ac" stroke="#9c44ac"></path><path d="M960 411L960 251L839.9 414Z" fill="#9c44ac" stroke="#9c44ac"></path><path d="M844.9 540L960 411L839.9 414Z" fill="#e361d5" stroke="#e361d5"></path><path d="M0 0L0 129L122.1 120Z" fill="#5b2980" stroke="#5b2980"></path><path d="M960 251L960 149L836.9 152Z" fill="#5b2980" stroke="#5b2980"></path><path d="M0 409L0 540L113.1 540Z" fill="#863b9e" stroke="#863b9e"></path><path d="M844.9 540L960 540L960 411Z" fill="#e361d5" stroke="#e361d5"></path><path d="M137.1 0L0 0L122.1 120Z" fill="#070544" stroke="#070544"></path><path d="M960 149L960 0L833.9 0Z" fill="#462071" stroke="#462071"></path></g></svg>