<svg id="visual" viewBox="0 0 900 600" width="900" height="600" xmlns="http://www.w3.org/2000/svg" xmlns:xlink="http://www.w3.org/1999/xlink" version="1.1"><path d="M0 61L13.7 69C27.3 77 54.7 93 82 95C109.3 97 136.7 85 163.8 88C191 91 218 109 245.2 127C272.3 145 299.7 163 327 150C354.3 137 381.7 93 409 82C436.3 71 463.7 93 491 102C518.3 111 545.7 107 573 99C600.3 91 627.7 79 654.8 74C682 69 709 71 736.2 84C763.3 97 790.7 121 818 130C845.3 139 872.7 133 886.3 130L900 127L900 0L886.3 0C872.7 0 845.3 0 818 0C790.7 0 763.3 0 736.2 0C709 0 682 0 654.8 0C627.7 0 600.3 0 573 0C545.7 0 518.3 0 491 0C463.7 0 436.3 0 409 0C381.7 0 354.3 0 327 0C299.7 0 272.3 0 245.2 0C218 0 191 0 163.8 0C136.7 0 109.3 0 82 0C54.7 0 27.3 0 13.7 0L0 0Z" fill="#ed96e4"></path><path d="M0 277L13.7 273C27.3 269 54.7 261 82 263C109.3 265 136.7 277 163.8 282C191 287 218 285 245.2 287C272.3 289 299.7 295 327 271C354.3 247 381.7 193 409 201C436.3 209 463.7 279 491 309C518.3 339 545.7 329 573 314C600.3 299 627.7 279 654.8 272C682 265 709 271 736.2 267C763.3 263 790.7 249 818 260C845.3 271 872.7 307 886.3 325L900 343L900 125L886.3 128C872.7 131 845.3 137 818 128C790.7 119 763.3 95 736.2 82C709 69 682 67 654.8 72C627.7 77 600.3 89 573 97C545.7 105 518.3 109 491 100C463.7 91 436.3 69 409 80C381.7 91 354.3 135 327 148C299.7 161 272.3 143 245.2 125C218 107 191 89 163.8 86C136.7 83 109.3 95 82 93C54.7 91 27.3 75 13.7 67L0 59Z" fill="#e87ddd"></path><path d="M0 391L13.7 381C27.3 371 54.7 351 82 353C109.3 355 136.7 379 163.8 382C191 385 218 367 245.2 358C272.3 349 299.7 349 327 333C354.3 317 381.7 285 409 297C436.3 309 463.7 365 491 397C518.3 429 545.7 437 573 432C600.3 427 627.7 409 654.8 401C682 393 709 395 736.2 379C763.3 363 790.7 329 818 340C845.3 351 872.7 407 886.3 435L900 463L900 341L886.3 323C872.7 305 845.3 269 818 258C790.7 247 763.3 261 736.2 265C709 269 682 263 654.8 270C627.7 277 600.3 297 573 312C545.7 327 518.3 337 491 307C463.7 277 436.3 207 409 199C381.7 191 354.3 245 327 269C299.7 293 272.3 287 245.2 285C218 283 191 285 163.8 280C136.7 275 109.3 263 82 261C54.7 259 27.3 267 13.7 271L0 275Z" fill="#e361d5"></path><path d="M0 487L13.7 473C27.3 459 54.7 431 82 433C109.3 435 136.7 467 163.8 474C191 481 218 463 245.2 445C272.3 427 299.7 409 327 390C354.3 371 381.7 351 409 370C436.3 389 463.7 447 491 472C518.3 497 545.7 489 573 478C600.3 467 627.7 453 654.8 454C682 455 709 471 736.2 464C763.3 457 790.7 427 818 430C845.3 433 872.7 469 886.3 487L900 505L900 461L886.3 433C872.7 405 845.3 349 818 338C790.7 327 763.3 361 736.2 377C709 393 682 391 654.8 399C627.7 407 600.3 425 573 430C545.7 435 518.3 427 491 395C463.7 363 436.3 307 409 295C381.7 283 354.3 315 327 331C299.7 347 272.3 347 245.2 356C218 365 191 383 163.8 380C136.7 377 109.3 353 82 351C54.7 349 27.3 369 13.7 379L0 389Z" fill="#c752ba"></path><path d="M0 601L13.7 601C27.3 601 54.7 601 82 601C109.3 601 136.7 601 163.8 601C191 601 218 601 245.2 601C272.3 601 299.7 601 327 601C354.3 601 381.7 601 409 601C436.3 601 463.7 601 491 601C518.3 601 545.7 601 573 601C600.3 601 627.7 601 654.8 601C682 601 709 601 736.2 601C763.3 601 790.7 601 818 601C845.3 601 872.7 601 886.3 601L900 601L900 503L886.3 485C872.7 467 845.3 431 818 428C790.7 425 763.3 455 736.2 462C709 469 682 453 654.8 452C627.7 451 600.3 465 573 476C545.7 487 518.3 495 491 470C463.7 445 436.3 387 409 368C381.7 349 354.3 369 327 388C299.7 407 272.3 425 245.2 443C218 461 191 479 163.8 472C136.7 465 109.3 433 82 431C54.7 429 27.3 457 13.7 471L0 485Z" fill="#ab439f"></path></svg>