<svg id="visual" viewBox="0 0 900 600" width="900" height="600" xmlns="http://www.w3.org/2000/svg" xmlns:xlink="http://www.w3.org/1999/xlink" version="1.1"><path d="M0 79L82 169L164 121L245 145L327 157L409 115L491 175L573 79L655 115L736 115L818 109L900 151L900 0L818 0L736 0L655 0L573 0L491 0L409 0L327 0L245 0L164 0L82 0L0 0Z" fill="#e361d5"></path><path d="M0 157L82 247L164 193L245 181L327 199L409 193L491 223L573 139L655 199L736 151L818 163L900 241L900 149L818 107L736 113L655 113L573 77L491 173L409 113L327 155L245 143L164 119L82 167L0 77Z" fill="#a849b3"></path><path d="M0 229L82 295L164 301L245 223L327 295L409 313L491 289L573 211L655 259L736 259L818 205L900 301L900 239L818 161L736 149L655 197L573 137L491 221L409 191L327 197L245 179L164 191L82 245L0 155Z" fill="#70328f"></path><path d="M0 397L82 457L164 397L245 451L327 391L409 493L491 457L573 337L655 397L736 421L818 469L900 403L900 299L818 203L736 257L655 257L573 209L491 287L409 311L327 293L245 221L164 299L82 293L0 227Z" fill="#3c1c6a"></path><path d="M0 601L82 601L164 601L245 601L327 601L409 601L491 601L573 601L655 601L736 601L818 601L900 601L900 401L818 467L736 419L655 395L573 335L491 455L409 491L327 389L245 449L164 395L82 455L0 395Z" fill="#070544"></path></svg>