<svg id="visual" viewBox="0 0 900 600" width="900" height="600" xmlns="http://www.w3.org/2000/svg" xmlns:xlink="http://www.w3.org/1999/xlink" version="1.1"><path d="M0 61L13.7 58C27.3 55 54.7 49 82 54C109.3 59 136.7 75 163.8 77C191 79 218 67 245.2 64C272.3 61 299.7 67 327 75C354.3 83 381.7 93 409 92C436.3 91 463.7 79 491 68C518.3 57 545.7 47 573 52C600.3 57 627.7 77 654.8 77C682 77 709 57 736.2 53C763.3 49 790.7 61 818 69C845.3 77 872.7 81 886.3 83L900 85L900 0L886.3 0C872.7 0 845.3 0 818 0C790.7 0 763.3 0 736.2 0C709 0 682 0 654.8 0C627.7 0 600.3 0 573 0C545.7 0 518.3 0 491 0C463.7 0 436.3 0 409 0C381.7 0 354.3 0 327 0C299.7 0 272.3 0 245.2 0C218 0 191 0 163.8 0C136.7 0 109.3 0 82 0C54.7 0 27.3 0 13.7 0L0 0Z" fill="#ab439f"></path><path d="M0 259L13.7 243C27.3 227 54.7 195 82 201C109.3 207 136.7 251 163.8 274C191 297 218 299 245.2 286C272.3 273 299.7 245 327 225C354.3 205 381.7 193 409 196C436.3 199 463.7 217 491 231C518.3 245 545.7 255 573 257C600.3 259 627.7 253 654.8 233C682 213 709 179 736.2 181C763.3 183 790.7 221 818 233C845.3 245 872.7 231 886.3 224L900 217L900 83L886.3 81C872.7 79 845.3 75 818 67C790.7 59 763.3 47 736.2 51C709 55 682 75 654.8 75C627.7 75 600.3 55 573 50C545.7 45 518.3 55 491 66C463.7 77 436.3 89 409 90C381.7 91 354.3 81 327 73C299.7 65 272.3 59 245.2 62C218 65 191 77 163.8 75C136.7 73 109.3 57 82 52C54.7 47 27.3 53 13.7 56L0 59Z" fill="#e66fd9"></path><path d="M0 415L13.7 409C27.3 403 54.7 391 82 395C109.3 399 136.7 419 163.8 433C191 447 218 455 245.2 447C272.3 439 299.7 415 327 406C354.3 397 381.7 403 409 413C436.3 423 463.7 437 491 441C518.3 445 545.7 439 573 437C600.3 435 627.7 437 654.8 439C682 441 709 443 736.2 438C763.3 433 790.7 421 818 416C845.3 411 872.7 413 886.3 414L900 415L900 215L886.3 222C872.7 229 845.3 243 818 231C790.7 219 763.3 181 736.2 179C709 177 682 211 654.8 231C627.7 251 600.3 257 573 255C545.7 253 518.3 243 491 229C463.7 215 436.3 197 409 194C381.7 191 354.3 203 327 223C299.7 243 272.3 271 245.2 284C218 297 191 295 163.8 272C136.7 249 109.3 205 82 199C54.7 193 27.3 225 13.7 241L0 257Z" fill="#ed96e4"></path><path d="M0 517L13.7 513C27.3 509 54.7 501 82 501C109.3 501 136.7 509 163.8 518C191 527 218 537 245.2 531C272.3 525 299.7 503 327 495C354.3 487 381.7 493 409 499C436.3 505 463.7 511 491 511C518.3 511 545.7 505 573 500C600.3 495 627.7 491 654.8 496C682 501 709 515 736.2 517C763.3 519 790.7 509 818 510C845.3 511 872.7 523 886.3 529L900 535L900 413L886.3 412C872.7 411 845.3 409 818 414C790.7 419 763.3 431 736.2 436C709 441 682 439 654.8 437C627.7 435 600.3 433 573 435C545.7 437 518.3 443 491 439C463.7 435 436.3 421 409 411C381.7 401 354.3 395 327 404C299.7 413 272.3 437 245.2 445C218 453 191 445 163.8 431C136.7 417 109.3 397 82 393C54.7 389 27.3 401 13.7 407L0 413Z" fill="#e66fd9"></path><path d="M0 601L13.7 601C27.3 601 54.7 601 82 601C109.3 601 136.7 601 163.8 601C191 601 218 601 245.2 601C272.3 601 299.7 601 327 601C354.3 601 381.7 601 409 601C436.3 601 463.7 601 491 601C518.3 601 545.7 601 573 601C600.3 601 627.7 601 654.8 601C682 601 709 601 736.2 601C763.3 601 790.7 601 818 601C845.3 601 872.7 601 886.3 601L900 601L900 533L886.3 527C872.7 521 845.3 509 818 508C790.7 507 763.3 517 736.2 515C709 513 682 499 654.8 494C627.7 489 600.3 493 573 498C545.7 503 518.3 509 491 509C463.7 509 436.3 503 409 497C381.7 491 354.3 485 327 493C299.7 501 272.3 523 245.2 529C218 535 191 525 163.8 516C136.7 507 109.3 499 82 499C54.7 499 27.3 507 13.7 511L0 515Z" fill="#ab439f"></path></svg>